<svg width="1120" height="256" viewBox="0 0 1120 256" fill="none" xmlns="http://www.w3.org/2000/svg">
<rect width="193.102" height="204.329" transform="translate(0.00195312 0.126953)" fill="#274236"/>
<path d="M76.6892 40.6207C82.099 40.1381 89.4958 42.0879 94.3192 44.5215C95.2216 44.0268 96.276 43.5866 97.2401 43.207C106.541 39.5734 116.899 39.776 126.043 43.7408C142.411 50.8372 151.244 69.1035 147.383 86.3699C146.314 91.1527 144.246 95.2378 142.105 99.6192L137.738 108.636L119.631 145.97C116.837 151.714 113.489 158.228 110.922 164.022C108.482 163.858 104.987 163.96 102.49 163.959L87.1846 163.96C82.3303 163.958 77.1153 164.09 72.3175 164.008C72.2243 163.475 79.0776 149.768 79.8278 148.209L97.1663 112.603L94.3539 111.275C80.242 118.01 64.7693 116.478 52.8367 106.119C37.1872 92.5335 36.3929 67.9978 50.0877 52.7944C57.3647 44.7158 65.9771 41.2483 76.6892 40.6207ZM96.6573 58.9734C99.5391 56.7296 102.52 55.3302 106.076 54.5124C112.049 61.5569 114.985 71.8046 114.257 80.9503C113.521 90.1903 110.145 97.2315 104.12 104.177C106.559 104.891 110.617 105.507 113.154 105.154C114.925 104.919 116.575 104.688 118.311 104.211C131.502 100.584 139.727 87.5295 137.899 74.09C135.888 59.3103 122.256 48.9384 107.5 51.14C100.442 52.1928 94.4783 55.4364 90.0906 61.1729C81.9559 71.8726 82.7157 87.3858 92.0743 97.1063C89.6784 99.149 85.6426 101.03 82.5295 101.549C71.4251 88.2145 71.7857 67.6129 82.5848 54.6156C83.3584 53.6847 84.2684 52.8125 85.0035 51.8934C82.8076 51.41 78.2432 50.4836 76.0966 50.8585C74.423 51.047 72.8212 51.2149 71.1594 51.5989C57.5908 54.7352 49.0991 67.7732 50.7275 81.4455C52.3616 95.1661 64.3651 105.648 78.2159 105.176C78.9296 105.164 79.6508 105.053 80.3556 104.987C101.013 103.073 111.135 78.6113 99.16 62.1129C98.362 61.0131 97.49 60.0328 96.6573 58.9734ZM106.849 115.117C106.041 117.051 104.747 119.528 103.811 121.45L99.0647 131.22L88.1342 153.854L99.5415 153.912C101.063 153.91 103.305 153.966 104.783 153.841C106.686 149.523 124.467 114.038 124.472 113.043L124.412 112.998C118.287 115.009 113.298 115.888 106.849 115.117Z" fill="#F9F4E6"/>
<path d="M1120 32.7043H1088.28V2.41211H1120V32.7043ZM1118 204.455H1089.99V58.7099H1118V204.455Z" fill="#181818"/>
<path d="M984.166 208.45C955.017 208.45 936.441 191.589 936.441 166.726C936.441 134.148 961.018 124.432 997.312 117.573C1020.17 113.286 1034.18 110.429 1034.18 96.1399C1034.18 85.5662 1027.89 76.7071 1006.46 76.7071C981.022 76.7071 973.306 84.7088 971.878 104.142H943.3C944.729 76.1356 963.019 54.1309 1007.6 54.1309C1037.61 54.1309 1061.61 66.705 1061.61 104.427V171.299C1061.61 181.873 1063.04 187.302 1068.47 187.302C1069.33 187.302 1070.18 187.302 1071.9 187.017V204.163C1067.04 205.306 1062.18 205.878 1057.61 205.878C1043.61 205.878 1036.18 200.448 1034.46 183.873H1033.89C1024.46 199.019 1007.89 208.45 984.166 208.45ZM990.453 185.873C1015.6 185.873 1034.18 173.014 1034.18 147.579V126.718C1029.6 131.005 1017.03 134.148 1002.17 137.292C976.45 142.436 965.591 149.58 965.591 164.726C965.591 178.443 973.021 185.873 990.453 185.873Z" fill="#181818"/>
<path d="M920.95 204.46H889.801V173.311H920.95V204.46Z" fill="#181818"/>
<path d="M878.064 128.433C878.064 132.433 878.064 136.72 877.778 139.006H765.754C766.325 163.297 780.614 185.873 809.478 185.873C835.197 185.873 845.2 169.298 847.772 159.582H876.349C868.633 187.588 847.2 208.735 808.906 208.735C762.61 208.735 736.891 175.871 736.891 131.29C736.891 85.5662 764.325 54.1309 808.906 54.1309C853.201 54.1309 878.064 83.28 878.064 128.433ZM765.754 117.002H848.915C848.915 94.1395 832.911 76.9929 808.049 76.9929C784.615 76.9929 767.469 92.9964 765.754 117.002Z" fill="#181818"/>
<path d="M671.174 54.4238C698.037 54.4238 719.756 69.8557 719.756 103.291V204.456H691.75V111.007C691.75 91.5747 683.176 78.429 662.029 78.429C638.024 78.429 622.592 93.0035 622.592 115.008V204.456H594.586V58.7105H622.592V77.0001H623.164C630.879 65.8549 646.026 54.4238 671.174 54.4238Z" fill="#181818"/>
<path d="M474.88 255.601C468.593 255.601 464.307 255.029 456.876 253.6V230.738C461.735 231.31 464.307 231.595 468.879 231.595C480.024 231.595 493.17 225.88 498.885 203.018L440.016 58.7012H470.594L513.174 170.154H513.746L553.754 58.7012H583.189L525.463 207.876C511.46 243.884 497.457 255.601 474.88 255.601Z" fill="#181818"/>
<path d="M295.982 204.457H264.547V0.126953H300.555L395.432 157.304H396.004V0.126953H427.725V204.457H391.717L296.554 47.2799H295.982V204.457Z" fill="#181818"/>
</svg>
